<?xml version="1.0" standalone="no"?><!-- Generator: Gravit.io --><svg xmlns="http://www.w3.org/2000/svg" xmlns:xlink="http://www.w3.org/1999/xlink" style="isolation:isolate" viewBox="0 0 58 58" width="58" height="58"><defs><clipPath id="_clipPath_AxHIjos1OaPw6UBtGegxNGV7hfWrqPth"><rect width="58" height="58"/></clipPath></defs><g clip-path="url(#_clipPath_AxHIjos1OaPw6UBtGegxNGV7hfWrqPth)"><path d=" M 29 39.14 L 38.416 39.14 C 40.111 39.14 41.751 39.747 43.039 40.851 L 52.137 48.653 C 52.746 49.176 53.637 49.265 54.314 48.836 C 63.779 42.845 52.299 19.204 50.023 14.912 C 49.782 14.457 49.384 11.986 48.901 11.81 L 41.25 9.028 C 40.579 8.783 39.832 8.873 39.239 9.269 C 39.239 9.269 37.082 10.647 36.599 10.647 L 28.201 10.647 L 21.673 10.647 C 21.19 10.647 18.762 9.269 18.762 9.269 C 18.168 8.873 17.421 8.783 16.751 9.028 L 9.1 11.81 C 8.616 11.986 8.219 14.457 7.978 14.912 C 5.702 19.204 -5.778 42.845 3.687 48.836 C 4.365 49.264 5.256 49.175 5.864 48.653 L 14.962 40.851 C 16.25 39.747 17.89 39.14 19.585 39.14 L 29 39.14 Z " fill="rgb(56,69,79)"/><path d=" M 32.68 30.17 C 32.68 27.969 34.466 26.183 36.667 26.183 C 38.867 26.183 40.654 27.969 40.654 30.17 C 40.654 32.37 38.867 34.157 36.667 34.157 C 34.466 34.157 32.68 32.37 32.68 30.17 Z " fill="rgb(84,106,121)"/><path d=" M 9.754 20.202 C 9.754 18.002 11.541 16.215 13.741 16.215 C 15.942 16.215 17.728 18.002 17.728 20.202 C 17.728 22.403 15.942 24.189 13.741 24.189 C 11.541 24.189 9.754 22.403 9.754 20.202 Z " fill="rgb(84,106,121)"/><path d=" M 41.65 16.215 C 41.65 15.115 42.544 14.222 43.644 14.222 C 44.744 14.222 45.637 15.115 45.637 16.215 C 45.637 17.315 44.744 18.209 43.644 18.209 C 42.544 18.209 41.65 17.315 41.65 16.215 Z " fill="rgb(235,186,22)" fill-opacity="0.5"/><path d=" M 37.663 20.202 C 37.663 19.102 38.557 18.209 39.657 18.209 C 40.757 18.209 41.65 19.102 41.65 20.202 C 41.65 21.302 40.757 22.196 39.657 22.196 C 38.557 22.196 37.663 21.302 37.663 20.202 Z " fill="rgb(115,131,191)" fill-opacity="0.54"/><path d=" M 45.637 20.202 C 45.637 19.102 46.531 18.209 47.631 18.209 C 48.731 18.209 49.624 19.102 49.624 20.202 C 49.624 21.302 48.731 22.196 47.631 22.196 C 46.531 22.196 45.637 21.302 45.637 20.202 Z " fill="rgb(215,90,74)" fill-opacity="0.5"/><path d=" M 41.65 24.189 C 41.65 23.089 42.544 22.196 43.644 22.196 C 44.744 22.196 45.637 23.089 45.637 24.189 C 45.637 25.289 44.744 26.183 43.644 26.183 C 42.544 26.183 41.65 25.289 41.65 24.189 Z " fill="rgb(97,184,114)" fill-opacity="0.5"/><path d=" M 31.683 11.674 C 31.683 11.483 31.664 11.295 31.629 11.115 C 31.594 10.934 31.518 10.778 31.415 10.647 C 30.247 10.647 29.341 10.647 28.944 10.647 C 28.859 10.654 28.779 10.677 28.693 10.677 C 28.607 10.677 28.527 10.655 28.443 10.647 C 28.43 10.647 28.202 10.647 28.202 10.647 L 25.962 10.647 C 25.875 10.761 25.805 10.892 25.771 11.046 C 25.684 11.443 25.677 11.87 25.771 12.313 C 26.018 13.479 26.992 14.419 28.167 14.619 C 30.05 14.94 31.683 13.498 31.683 11.674 Z " fill="rgb(175,182,187)"/><path d=" M 27.197 27.83 L 23.922 27.83 L 23.922 24.555 C 23.922 24.161 23.603 23.843 23.21 23.843 L 20.648 23.843 C 20.254 23.843 19.936 24.162 19.936 24.555 L 19.936 27.83 L 16.661 27.83 C 16.267 27.83 15.949 28.149 15.949 28.542 L 15.949 31.105 C 15.949 31.498 16.268 31.816 16.661 31.816 L 19.935 31.816 L 19.935 35.092 C 19.935 35.485 20.254 35.803 20.647 35.803 L 23.209 35.803 C 23.603 35.803 23.921 35.484 23.921 35.092 L 23.921 31.816 L 27.196 31.816 C 27.59 31.816 27.908 31.497 27.908 31.105 L 27.908 28.542 C 27.909 28.149 27.59 27.83 27.197 27.83 Z " fill="rgb(84,106,121)"/></g></svg>